<?xml version="1.0" encoding="UTF-8"?>
<svg width="50px" height="32px" viewBox="0 0 50 32" version="1.1" xmlns="http://www.w3.org/2000/svg" xmlns:xlink="http://www.w3.org/1999/xlink">
    <!-- Generator: Sketch 42 (36781) - http://www.bohemiancoding.com/sketch -->
    <title>symbol</title>
    <desc>Created with Sketch.</desc>
    <defs>
        <linearGradient x1="1.41638472e-14%" y1="50%" x2="97.1101722%" y2="50%" id="linearGradient-1">
            <stop stop-color="#FF64FF" offset="0%"></stop>
            <stop stop-color="#64BEFF" offset="100%"></stop>
        </linearGradient>
    </defs>
    <g id="Symbols" stroke="none" stroke-width="1" fill="none" fill-rule="evenodd">
        <g id="top_bar_bright_bg" transform="translate(-30.000000, -8.000000)" fill="url(#linearGradient-1)">
            <g id="symbol" transform="translate(30.000000, 8.000000)">
                <path d="M45.8988655,21.8236909 C45.6965009,21.6983231 45.4306173,21.7602085 45.3048999,21.9620347 L42.796076,25.9896968 C42.5838655,26.3303061 42.2243242,26.5228296 41.8350446,26.5041043 C41.4963162,26.4879741 41.2202663,26.3143756 41.0776586,26.0277463 C39.3780927,22.6117916 31.4123507,6.41414455 30.3801155,4.32317637 C29.3347121,2.20557749 27.2263747,0.890931803 24.8826924,0.890931803 C22.5389701,0.890931803 20.4306327,2.20557749 19.3852294,4.32317637 C18.3529942,6.41414455 10.3872522,22.6117916 8.68768627,26.0277463 C8.54507851,26.3143756 8.26902863,26.4879741 7.93030018,26.5041043 C7.54102063,26.5228296 7.18147937,26.3303061 6.96926878,25.9896968 L4.46044489,21.9620347 C4.33472752,21.7602085 4.0688439,21.6983231 3.86647937,21.8236909 C3.66415486,21.9490987 3.60207666,22.2143675 3.72779403,22.4161539 L6.23661792,26.4438558 C6.61060807,27.0442641 7.27517703,27.3965318 7.97140548,27.3635928 C8.62212592,27.3326501 9.17870844,26.97627 9.46032174,26.4103179 C11.1608082,22.9925266 19.1271506,6.79368177 20.1590656,4.70331247 C21.0717873,2.85445597 22.8397152,1.7513386 24.8826924,1.7513386 C26.9256296,1.7513386 28.6935576,2.85445597 29.6062792,4.70331247 C30.6381943,6.79368177 38.6045366,22.9925266 40.3050231,26.4103179 C40.5866364,26.97627 41.1432189,27.3326501 41.7939393,27.3635928 C42.4901678,27.3965318 43.1547368,27.0442641 43.5287269,26.4438558 L46.0375508,22.4161539 C46.1632682,22.2143675 46.10119,21.9490987 45.8988655,21.8236909" id="Fill-19"></path>
                <path d="M49.5615234,24.0933921 C49.3591989,23.9680243 49.0932752,24.0300694 48.9675979,24.2319356 L46.3850486,28.3800945 C45.3608984,30.0250885 43.5329335,30.9876262 41.6164341,30.8922428 C39.7219483,30.7980173 38.0736139,29.6897894 37.2071607,27.927812 C36.4408091,26.3694177 29.2130813,11.6915564 26.508577,6.22116589 C26.2006675,5.5983192 25.5745622,5.21155537 24.8826564,5.21155537 C24.1907906,5.21155537 23.5646853,5.5983192 23.2567759,6.22116589 C20.5522716,11.6915564 13.3245437,26.3694177 12.5581921,27.927812 C11.6917389,29.6897894 10.0434046,30.7980173 8.14891872,30.8922428 C6.23237931,30.9876262 4.40441441,30.0250885 3.38030419,28.3800945 L0.797754926,24.2319356 C0.672077586,24.0300694 0.406153941,23.9680243 0.203829433,24.0933921 C0.00146490148,24.2187999 -0.0606933498,24.4840687 0.0649439655,24.6858551 L2.64753325,28.8340539 C3.83702525,30.7446761 5.96145259,31.8622866 8.19190517,31.7516515 C10.4042266,31.6415753 12.3260092,30.3537599 13.3325887,28.3067503 C14.0989002,26.7484758 21.3261478,12.0716926 24.0303719,6.60174118 C24.1943929,6.26999547 24.5161509,6.07200209 24.8826564,6.07200209 C25.2491619,6.07200209 25.57096,6.26999547 25.7349809,6.60174118 C28.439205,12.0716926 35.6664526,26.7484758 36.4327241,28.3067503 C37.4393436,30.3537599 39.3611262,31.6415753 41.5734477,31.7516515 C43.8038602,31.8622866 45.9282876,30.7446761 47.1178196,28.8340539 L49.7003688,24.6858551 C49.8260462,24.4840687 49.7638879,24.2187999 49.5615234,24.0933921" id="Fill-21"></path>
                <path d="M47.7296121,22.9584657 C47.5273276,22.8330978 47.2613639,22.8951429 47.1356866,23.0970091 L44.5531373,27.245208 C43.9505665,28.2131357 42.9094058,28.7574478 41.7689039,28.701152 C40.6280819,28.6448563 39.6461176,28.0008488 39.1421675,26.9783421 C38.3326693,25.3359433 30.3670074,9.15997613 28.4437038,5.27201541 C27.7618042,3.89348801 26.3967241,3.03763279 24.8826724,3.03763279 C23.3686207,3.03763279 22.0035406,3.89348801 21.321641,5.27201541 C19.3983374,9.15997613 11.4326755,25.3359433 10.6231773,26.9783421 C10.1192272,28.0008488 9.13726293,28.6448563 7.99644089,28.701152 C6.85593904,28.7574478 5.81477833,28.2131357 5.21220751,27.245208 L2.62965825,23.0970091 C2.50398091,22.8951429 2.23805727,22.8330978 2.03573276,22.9584657 C1.83336823,23.0838335 1.77120998,23.3491423 1.89688732,23.5509286 L4.47943658,27.6991674 C5.24983067,28.9365961 6.58052956,29.6321481 8.03902709,29.5605607 C9.49756466,29.4886538 10.7529372,28.6652585 11.3972537,27.3579991 C12.2067919,25.7154805 20.1722137,9.54003239 22.095157,5.65275041 C22.6388116,4.55374542 23.6814932,3.89807951 24.8826724,3.89807951 C26.0838516,3.89807951 27.1265333,4.55374542 27.6701878,5.65275041 C29.5931312,9.54003239 37.558553,25.7154805 38.3680911,27.3579991 C39.0124076,28.6652585 40.2677802,29.4886538 41.7263177,29.5605607 C43.1848153,29.6321481 44.5155142,28.9365961 45.2859483,27.6991674 L47.8684575,23.5509286 C47.9941349,23.3491423 47.9319766,23.0838335 47.7296121,22.9584657" id="Fill-24"></path>
            </g>
        </g>
    </g>
</svg>